<?xml version="1.0" encoding="utf-8"?>
<!-- Generator: Adobe Illustrator 19.2.0, SVG Export Plug-In . SVG Version: 6.00 Build 0)  -->
<svg version="1.1" id="Layer_1" xmlns="http://www.w3.org/2000/svg" xmlns:xlink="http://www.w3.org/1999/xlink" x="0px" y="0px"
	 viewBox="294 782 500 500" enable-background="new 294 782 500 500" xml:space="preserve">
<circle fill="#7CB59E" cx="544" cy="1032" r="181.1"/>
<g>
	<path fill="#FCEA0D" d="M568.9,1004.8c0,0-87.3-66.9-102.1-99c-5.8-12.7-7-22.9-6.4-30.5c0.2-2.2-3-2.9-3.7-0.8
		c-4.5,13.1-5.3,33.5,13,60.2l30.8,50.5l52.2,24.9L568.9,1004.8z"/>
	<path fill="#FCEA0D" d="M454,892.6l0.1-6.3l26.1,42.1l77.1,78.9l-20.6,2.7l-42.6-22.4l-34.1-69C455.9,910.5,453.8,901.6,454,892.6z
		"/>
</g>
<path fill="#FCEA0D" d="M495.4,1045c-24.5-2.2-52.8-19.8-58.4-45.2c-0.2-1.1,1.1-1.7,1.8-0.9c6.7,8.4,27.9,27.5,77,19.3"/>
<g>
	<path fill="#FCEA0D" d="M534.1,1006.2c0,0-69.7-20.1-86.5-36.2c-6.6-6.4-9.8-12.3-11.2-17.2c-0.4-1.4-2.5-1.1-2.5,0.4
		c0.4,9.1,4.8,21.9,22.5,33.8l31.1,23.6l56.7,5.1L534.1,1006.2z"/>
	<path fill="#FCEA0D" d="M486.6,1016.4l34.6,4.1l15.1-6.1l-75.8-30.1l-25.8-25.8v0c2.8,18,13.3,33.9,28.8,43.6L486.6,1016.4z"/>
</g>
<path fill="#FFFFFF" d="M544,1213.1c29.3,0,57-7,81.5-19.3v-126.5l-15,4.2v-65.8h-43.4c-60.6,0-109.6,49.1-109.6,109.6v0v7.6v4.8
	c-0.5,19-6.5,37.2-16.8,52.8C469.9,1201.2,505.6,1213.1,544,1213.1z"/>
<g>
	<path fill="#FCEA0D" d="M583,988.8c0,0-60.3-106.4-61.1-145.4c-0.3-15.4,3-26.3,7-33.7c1.2-2.2-1.7-4.3-3.4-2.4
		c-10.4,11.3-20.2,31.6-13.4,66.8l5,75.5l43.2,50.9L583,988.8z"/>
	<path fill="#FCEA0D" d="M515.1,825.9l2.9-6.3l5.7,52.3l25,92.5l-0.8,26.9L517.2,954l-7.5-99.1C509.1,844.9,510.9,834.9,515.1,825.9
		z"/>
</g>
<g>
	<path fill="#FCEA0D" d="M636,987.3c-1,0-1.9-0.4-2.5-1.3c-30.3-41.4-47.5-79.3-51.4-112.5c-3.6-30.8,4.9-56.4,24.6-73.9
		c7.3-6.5,15-11.1,22.9-13.7c1.6-0.5,3.4,0.3,3.9,2c0.5,1.6-0.3,3.4-2,3.9c-7.1,2.4-14.1,6.6-20.7,12.5
		c-18.1,16.1-25.9,39.8-22.6,68.5c3.7,32.1,20.6,68.9,50.2,109.5c1,1.4,0.7,3.3-0.7,4.4C637.3,987.1,636.6,987.3,636,987.3z"/>
</g>
<path fill="#FCEA0D" d="M586.9,886.8c-15.5-70.3,42.7-100.9,42.7-100.9c-80.6,21.9-90.9,143.4-53.9,191.2l38.3-9.7L586.9,886.8z"/>
<path fill="#FFFFFF" d="M627.3,979.1c-3.3-9.5-10.5,0.8-23.9-12.6c-54-54-14.2-123.8-14.2-123.8c-6.5,38.7,10.1,85,38,113.6
	c32.9,33.7,52.7,84.3,12.9,128.9l-38-3.9v-70.7"/>
<g>
	<g>
		<path opacity="0.5" fill="#3B3F3C" d="M662,1072.2L662,1072.2c0.1,0.1,0.2,0.2,0.3,0.3C662.2,1072.4,662.1,1072.3,662,1072.2z"/>
	</g>
</g>
<path fill="#FFFFFF" d="M557.2,981.1c-11.1,0-20.2,8.4-21.2,19.3h-0.1v2.1v0.4v2.1h0.1c1,10.8,10.2,19.3,21.2,19.3h63l-10.9-43.1
	H557.2z"/>
<path fill="#FFFFFF" d="M587.6,955.6c-11.1,0-20.2,8.4-21.2,19.3h-0.1v2.1v0.4v2.1h0.1c1,10.8,10.2,19.3,21.2,19.3h51.5l-23.3-43.1
	H587.6z"/>
<g>
	<circle fill="#F2F1F1" cx="590.6" cy="1067.6" r="14.9"/>
	<circle fill="#202521" cx="590.6" cy="1067.6" r="8.6"/>
</g>
<g>
	<path fill="#3B3F3C" d="M607.7,1102v19.8l17.7,14.7h1.6c18,0,33.4-11.4,39.3-27.4c1.7-4.5-9.6-9.4-9.6-14.5L607.7,1102z"/>
	<path fill="#0E0E0E" d="M649.7,1073.2c-0.1-0.1-0.2-0.2-0.3-0.2h-12.7c-15.5,0-28.2,12.2-29,27.5c0,0.5,0,1,0,1.6l45.9,20
		c0.6,1.2,1.1,2.5,1.6,3.7c1.7,4.6,2.7,9.5,2.7,14.7c0,4.7-0.8,9.3-2.3,13.5l0,0.2c8.5-10.1,13.6-23.1,13.6-37.4
		C669.2,1099.4,661.7,1083.9,649.7,1073.2z"/>
</g>
</svg>
